<?xml version='1.0' encoding='utf-8'?>
<svg xmlns="http://www.w3.org/2000/svg" version="1.1" id="Ebene_1" x="0px" y="0px" width="566.823px" height="983.927px" viewBox="0 0 566.823 983.927" enable-background="new 0 0 566.823 983.927"> <g> <path fill="#EACCAD" d="M564.858,557.652c0,0,0.687-28.629-1.144-33.439c-1.294-3.393-11.118-3.025-16.803-2.513l0.15,0.832 c19.062,2.856-19.665,19.219-125.132,50.925c-112.005,33.67-203.74,34.873-222.465,34.873s-19.068-11.338-20.442-20.958 c-1.375-9.62,7.043-11.339,7.043-11.339l9.104-0.858c0,0,78.622-5.935,182.095-27.829 c100.668-21.303,181.408-54.285,181.408-54.285c2.749-9.964-2.748-18.21-2.748-18.21s-55.354,23.09-152.892,46.383 c-138.117,32.983-198.587,35.045-198.587,35.045s-8.012,0.728-20.539,0s-16.204-16.293-14.436-26.235 c1.77-9.942,15.048-10.871,15.048-10.871s84.004-10.484,180.549-29.204c129.356-25.081,184.328-50.162,184.328-50.162 c2.749-9.964-2.749-18.209-2.749-18.209s-53.968,23.838-151.345,41.572c-98.091,17.866-212.845,38.824-212.845,38.824 c-23.027,4.203-24.697-11.319-24.697-24.777c0-11.574,16.451-12.672,16.451-12.672s84.176-15.804,181.408-33.327 c97.231-17.522,184.5-42.26,184.5-42.26c2.748-9.964-2.749-18.21-2.749-18.21s-21.334,5.758-61.279,14.771 c0-0.009-2.835-39.058,30.062-44.402c15.547-3.159,24.689-5.07,24.689-5.07c2.748-9.964-2.749-18.209-2.749-18.209 s-13.163,2.896-37.53,7.677c-0.048-0.011-23.32-4.886-30.288-33.84c37.358-5.279,61.978-8.194,61.978-8.194 c2.749-9.964-2.749-18.21-2.749-18.21s-56.346,5.153-154.265,19.584c-97.919,14.43-213.704,45.008-213.704,45.008 c-13.375,3.437-22.499,2.99-25.425-14.024c-3.436-19.989,17.179-21.363,17.179-21.363s83.317-23.535,180.549-41.058 c97.232-17.522,189.139-21.816,189.139-21.816c2.748-9.964-2.749-18.21-2.749-18.21s-58.235-1.202-156.155,13.228 c-97.918,14.431-212.845,45.867-212.845,45.867c-10.908,2.907-25.253,4.352-26.417-12.991 c-1.171-17.415,16.797-20.335,16.797-20.335s81.084-25.769,178.316-43.291c97.231-17.522,191.371-17.179,191.371-17.179 c2.748-9.964-2.749-18.209-2.749-18.209s-60.469-5.841-158.388,8.589c-97.919,14.431-210.611,48.101-210.611,48.101 s-9.916,3.165-11.905,3.165s-12.736-0.199-12.736-17.713c0-17.515,8.756-20.103,31.247-25.873 c22.49-5.771,133.229-37.228,253.824-50.283c0,0,102.729-9.276,86.925,6.528c24.737,0,8.702-40.083,1.374-58.867 s-19.01-27.714-19.01-27.714c-22.22-38.253-65.279-34.816-65.279-34.816C368.564-4.668,273.334,0.931,262.88,0.931 c-10.455,0-9.757,4.251-9.757,4.251C-13.948,29.919,0.128,210.936,0.128,227.548s22.386,13.074,22.386,13.074l-2.222-11.944 c40.383-25.672,45.867-22.16,48.616-5.497s-17.863,23.661-17.863,23.661s-17.608,6.061-27.999,10.391 c-10.39,4.329-13.565,7.505-13.565,16.164s2.021,11.257,2.021,11.257s2.598-8.369,26.267-15.874 c23.67-7.505,29.738-8.444,29.738-8.444c3.237,0,11.021,4.762,11.021,20.223S60.85,300.027,60.85,300.027 s-17.608,3.677-27.999,8.007c-10.391,4.329-13.565,3.809-13.565,12.468s2.021,11.258,2.021,11.258s2.598-4.674,26.267-12.179 s29.738-6.061,29.738-6.061l-0.604-0.494c0.017,0,9.382,0.014,11.612,16.492c2.233,16.491-8.407,18.934-8.407,18.934 s-22.802,5.484-32.328,8.659c-9.526,3.176-21.366,2.892-19.342,12.992c2.023,10.101,2.023,10.101,2.023,10.101 s8.082-7.506,50.224-15.011c6.601,0,14.701,1.259,16.763,17.579c2.062,16.319-8.394,17.638-8.394,17.638 s-26.265,6.351-51.955,9.813c0,0-1.731,11.545,3.753,17.028c0,0,10.68,0.003,24.823-2.596c14.143-2.598,21.073-4.042,25.69-4.042 c8.348,0,13.641,0.811,15.874,16.271s-9.236,17.211-9.236,17.211s-17.608,6.351-50.514,6.351c0,0-2.019,10.388,1.444,17.028 c0,0,22.515-3.462,40.41-3.462s17.896,0,17.896,0c5.153,0,9.62,4.445,10.823,18.875c1.202,14.43-12.265,14.325-12.265,14.325 c-55.13,7.218-51.378-1.734-51.378-1.734s-6.496,11.113,2.309,19.917c0,0,0.864,2.596,51.378,1.154 c14.953,0,18.545,4.475,20.435,18.046s-9.178,14.282-9.178,14.282c-50.776,5.001-54.513-2.995-54.606-5.218 c-3.836,25.674,23.433,22.823,23.433,22.823l33.195,0.843c-0.048-0.005-0.104-0.005-0.155-0.005 c0.304,0.005,0.556,0.011,0.88,0.021h-0.08l0.51,0.011c21.903,0.553,16.712,29.772,16.712,29.772s-11.454,0-29.319-2.287 c-17.866-2.286-21.586-15.546-21.586-15.546c-14.144,6.86-13.688,12.342-13.688,13.71c0,1.375,12.369,45.809,42.604,75.131 s58.811,39.994,58.811,39.994l39.254,88.922c-3.148,7.269-8.482,27.867,5.816,59.61s39.495,39.243,39.495,39.243l7.996,63.48 c0,0,21.326,14.543,67.121,14.543c45.797,0,66.391-20.115,66.391-20.115s-5.814-81.9-6.298-92.562 c-0.482-10.661-2.812-12.857-2.812-12.857c15.573-8.015,18.327-19.24,18.327-19.24s16.718-12.368,16.718-42.372 s-19.01-37.106-19.01-37.106l-4.579-38.48c44.434-6.185,69.628-27.717,69.628-27.717c36.645-10.769,49.937-31.378,49.937-31.378 C580.438,637.592,564.858,557.652,564.858,557.652z M135.975,364.874c0.952-7.896,4.063-11.341,17.624-13.023 c0,0,84.176-22.676,181.407-40.198c31.566-5.69,62.354-10.648,89.566-14.758c0,0.017,2.04,38.508-24.958,45.239 c-8.67,1.484-17.721,3.006-27.158,4.563c-97.659,16.104-210.612,40.542-210.612,40.542s-10.148,2.808-17.291,0.649 C137.338,385.708,135.246,370.897,135.975,364.874z M146.461,420.431c0.956-12.256,17.445-13.266,17.445-13.266 s80.396-16.835,177.628-34.357c20.926-3.771,41.604-7.62,61.184-11.341c0,0,27.507-0.137,38.771,31.636 c-16.476,3.511-34.922,7.312-55.289,11.314c-97.919,19.24-214.048,40.198-214.048,40.198 C147.049,449.872,145.506,432.687,146.461,420.431z M64.562,553.661c0.029-0.196,0.021-0.354,0.054-0.553 C64.615,553.108,64.545,553.317,64.562,553.661z"/> <path fill="none" d="M101.759,577.225l24.619,0.628c-1.237-0.279-2.563-0.462-4.034-0.499l-0.51-0.011h0.08 c-0.324-0.011-0.576-0.017-0.88-0.021c0.051,0,0.107,0,0.155,0.005l-28.615-0.725C97.488,577.644,101.759,577.225,101.759,577.225z "/> <path fill="none" d="M116.868,527.415c-2.421-0.588-5.345-0.864-8.957-0.864c-15.845,0.451-26.796,0.508-34.376,0.367 C78.146,527.508,89.489,528.096,116.868,527.415z"/> <path fill="#794B37" d="M490.565,325.513c8.047-1.578,14.747-2.929,20.282-4.062l-6.438-35.742 c-10.779,1.385-25.929,3.39-44.133,5.964C467.245,320.627,490.518,325.502,490.565,325.513z M476.093,385.518 c19.234-4.341,34.104-7.916,44.407-10.466l-6.405-35.555c-2.437,0.499-5.035,1.028-7.939,1.618 C473.258,346.46,476.093,385.509,476.093,385.518z M182.459,501.993c0,0,114.754-20.958,212.845-38.824 c65.892-12.001,111.877-26.788,134.746-35.098l-6.243-34.667c-29.682,7.913-96.18,24.837-168.186,37.812 c-97.232,17.522-181.408,33.327-181.408,33.327s-16.451,1.098-16.451,12.672C157.762,490.673,159.432,506.196,182.459,501.993z M141.229,272.484c0,0,114.927-31.437,212.845-45.867c65.237-9.614,112.827-12.285,137.351-13.002l-6.255-34.709 c-30.975,0.719-102.234,3.803-175.244,16.961c-97.232,17.522-178.316,43.291-178.316,43.291s-17.968,2.92-16.797,20.335 C115.977,276.835,130.321,275.391,141.229,272.484z M151.537,329.861c0,0,115.785-30.578,213.704-45.008 c65.123-9.596,111.828-15.088,135.825-17.691l-6.206-34.465c-31.475,2.149-99.793,7.883-171.021,20.719 c-97.231,17.522-180.549,41.058-180.549,41.058s-20.614,1.374-17.179,21.363C129.038,332.851,138.162,333.297,151.537,329.861z M129.549,217.168c0,0,112.692-33.67,210.611-48.101c67.47-9.942,117.148-10.262,141.531-9.499l-4.788-26.576 c0.521-1.562,0.875-2.969,1.153-4.309c-6.629-9.566-88.078-2.22-88.078-2.22c-120.596,13.056-231.334,44.512-253.824,50.283 c-22.491,5.771-31.247,8.358-31.247,25.873c0,17.514,10.747,17.713,12.736,17.713S129.549,217.168,129.549,217.168z M161.844,387.239c0,0,112.953-24.438,210.612-40.542c9.438-1.558,18.488-3.079,27.158-4.563 c26.998-6.731,24.958-45.223,24.958-45.239c-27.213,4.109-58,9.067-89.566,14.758c-97.231,17.522-181.407,40.198-181.407,40.198 c-13.561,1.683-16.672,5.127-17.624,13.023c-0.729,6.023,1.363,20.835,8.578,23.015 C151.695,390.046,161.844,387.239,161.844,387.239z M204.447,556.278c0,0,60.47-2.062,198.587-35.045 c66.584-15.901,113.487-31.7,136.565-40.131l-6.291-34.938c-24.641,9.029-78.545,26.412-168.239,43.803 c-96.545,18.72-180.549,29.204-180.549,29.204s-13.278,0.929-15.048,10.871c-1.769,9.942,1.908,25.508,14.436,26.235 S204.447,556.278,204.447,556.278z M172.151,444.616c0,0,116.129-20.958,214.048-40.198c20.367-4.003,38.813-7.804,55.289-11.314 c-11.264-31.772-38.771-31.636-38.771-31.636c-19.579,3.721-40.258,7.569-61.184,11.341 c-97.231,17.522-177.628,34.357-177.628,34.357s-16.489,1.01-17.445,13.266C145.506,432.687,147.049,449.872,172.151,444.616z M547.819,522.677c-0.253-0.049-0.478-0.103-0.757-0.146l-0.15-0.832l-4.059-22.544c-28.265,10.527-91.51,32.514-165.588,48.189 c-103.473,21.895-182.095,27.829-182.095,27.829l-9.104,0.858c0,0-8.418,1.719-7.043,11.339c1.374,9.62,1.718,20.958,20.442,20.958 s110.46-1.203,222.465-34.873c81.471-24.49,123.081-39.82,129.029-46.848C549.703,524.862,548.57,523.511,547.819,522.677z"/> <path fill="#B29476" d="M475.174,340.327c0.806,19.278-5.465,34.876-21.612,36.577c-13.899,1.466-28.705-16.421-29.51-35.699 c-0.806-19.275,9.223-34.14,23.191-34.723C461.206,305.9,474.369,321.054,475.174,340.327z"/> <path fill="#8D6042" d="M31.24,286.866l-1.047-5.566c13.421-8.839,41.623-15.475,44.398-16.06 c-2.426-3.517-5.379-4.904-7.086-4.904c0,0-6.068,0.939-29.738,8.444c-23.668,7.505-26.267,15.874-26.267,15.874 C15.524,288.68,31.24,286.866,31.24,286.866z M82.153,315.506c-2.805-2.451-5.438-2.48-5.446-2.48l0.604,0.494 c0,0-6.069-1.444-29.738,6.061s-26.267,12.179-26.267,12.179c5.384,2.429,18.416,0.185,18.416,0.185 c11.44-11.439,42.435-16.341,42.435-16.341S82.156,315.565,82.153,315.506z"/> <path fill="none" d="M130.568,555.789"/> <path fill="#8D6042" d="M102.4,451.995c-6.601,1.334-19.525,3.46-39.436,3.46l-0.776-4.131c0,0-18.703,6.887-14.945,9.416 c0.021-0.124,0.051-0.293,0.051-0.293c32.905,0,50.514-6.351,50.514-6.351S100.078,453.742,102.4,451.995z M93.043,370.409 c-3.479-4.676-8.32-5.216-12.554-5.216c-42.142,7.505-50.224,15.011-50.224,15.011c9.599,1.431,17.061-1.068,17.061-1.068 C72.488,368.352,86.221,368.634,93.043,370.409z M105.603,507.213c0,0,5.782,0.017,9.43-4.029 c-11.292,1.272-33.037,4.175-42.92,0.881l-1.292-6.858c0,0-13.885,2.539-16.604,8.705c-0.02,0.043-0.011,0.086-0.027,0.126 C54.488,507.882,59.083,513.304,105.603,507.213z M81.198,552.345l-1.876-9.975c0,0-10.039,2.451-14.761,11.29 c0.094,2.223,3.83,10.219,54.606,5.218c0,0,3.383-0.306,6.094-2.823C115.049,556.455,94.24,556.74,81.198,552.345z M64.29,556.952 c0.052-1.061,0.097-2.115,0.271-3.291C63.957,554.793,63.914,555.891,64.29,556.952z"/> <path fill="#7B463C" d="M112.515,505.232c-0.408,0.242-0.816,0.451-1.224,0.637C111.698,505.681,112.106,505.477,112.515,505.232z M111.291,505.869c-0.428,0.196-0.849,0.362-1.262,0.505C110.45,506.231,110.855,506.065,111.291,505.869z M114.439,503.743 c-0.325,0.306-0.655,0.602-1.002,0.856C113.781,504.344,114.114,504.051,114.439,503.743z M113.438,504.599 c-0.306,0.223-0.611,0.445-0.923,0.633C112.831,505.042,113.129,504.825,113.438,504.599z M109.279,506.613 c-0.439,0.125-0.854,0.228-1.239,0.306C108.432,506.843,108.829,506.738,109.279,506.613z M110.029,506.374 c-0.256,0.086-0.505,0.172-0.75,0.239C109.527,506.542,109.771,506.462,110.029,506.374z M106.646,507.141 c-0.293,0.026-0.604,0.059-0.765,0.064C106.057,507.197,106.33,507.173,106.646,507.141z M115.032,503.184 c-0.188,0.207-0.395,0.371-0.593,0.559c2.214-2.091,3.883-5.397,3.428-10.854c-1.203-14.431-5.67-18.875-10.823-18.875 c0,0,0,0-17.896,0c-7.336,0-15.432,0.585-22.453,1.27l4.125,21.924l1.292,6.858C81.995,507.359,103.74,504.457,115.032,503.184z M107.219,507.066c-0.207,0.032-0.397,0.057-0.572,0.075C106.832,507.123,106.993,507.098,107.219,507.066z M108.04,506.918 c-0.284,0.054-0.577,0.115-0.821,0.147C107.469,507.031,107.747,506.977,108.04,506.918z M102.218,452.11 c-0.502,0.362-1.004,0.679-1.474,0.923C101.214,452.789,101.713,452.472,102.218,452.11z M107.044,436.885 c-2.233-15.461-7.526-16.271-15.874-16.271c-4.617,0-11.548,1.444-25.69,4.042c-2.872,0.526-5.548,0.926-8.074,1.259l4.783,25.409 l0.287,1.535l0.489,2.596c19.865,0,32.771-2.115,39.385-3.449C105.268,449.844,108.292,445.526,107.044,436.885z M102.4,451.995 c-0.016,0.002-0.035,0.008-0.051,0.011c-0.043,0.032-0.089,0.072-0.132,0.104C102.279,452.064,102.339,452.04,102.4,451.995z M125.262,556.055c-2.37,2.2-5.253,2.711-5.94,2.805c0.821-0.075,10.839-1.243,9.024-14.264 c-1.89-13.571-5.481-18.046-20.435-18.046c-13.998,0.4-24.08,0.483-31.491,0.402l2.902,15.418l1.876,9.975 C94.24,556.74,115.049,556.455,125.262,556.055z M88.319,329.518c-1.05-7.752-3.675-11.832-6.166-14.012 c0.003,0.059,0.003,0.097,0.003,0.097s-30.994,4.901-42.435,16.341l4.901,26.037c0.999-0.266,1.992-0.548,2.961-0.87 c9.526-3.175,32.328-8.659,32.328-8.659S90.553,346.009,88.319,329.518z M78.527,280.558c0-7.312-1.758-12.165-3.936-15.318 c-2.775,0.585-30.978,7.221-44.398,16.06l1.015,5.393l3.852,20.472c10.492-3.94,25.79-7.137,25.79-7.137 S78.527,296.019,78.527,280.558z M93.035,370.401c-0.867-1.165-1.817-2.075-2.826-2.778 C91.218,368.329,92.168,369.236,93.035,370.401z M122.344,577.354l-0.51-0.011h0.08c-0.324-0.011-0.576-0.017-0.88-0.021 c0.051,0,0.107,0,0.155,0.005l-33.195-0.843c0,0-0.872,0.086-2.238,0.092l2.395,12.718c0,0,0.088,0.257,0.249,0.708 c1.056,2.754,5.933,12.868,21.337,14.838c17.865,2.287,29.319,2.287,29.319,2.287S144.247,577.907,122.344,577.354z M68.907,223.181c-2.749-16.663-6.7-20.614-48.616,5.497l5.186,27.563c10.483-4.208,25.566-9.399,25.566-9.399 S71.656,239.844,68.907,223.181z M69.001,260.612c1.661,0.556,3.774,1.994,5.591,4.628 C72.772,262.601,70.671,261.149,69.001,260.612z M88.617,366.686c-1.533-0.747-3.144-1.128-4.743-1.315 C85.474,365.555,87.084,365.945,88.617,366.686z M82.148,315.5c-2.803-2.445-5.434-2.475-5.441-2.475 C76.715,313.026,79.346,313.058,82.148,315.5z M97.252,382.772c-0.74-5.854-2.266-9.749-4.211-12.363 c-6.711-1.745-20.158-1.989-44.525,8.254l5.438,28.898c19.082-3.331,34.905-7.151,34.905-7.151S99.313,399.091,97.252,382.772z"/> <path fill="#8D6042" d="M22.514,240.623l-2.222-11.944c32.132-20.427,42.147-22.338,46.291-13.888c0-0.113,0.021-0.223,0.017-0.336 c-0.829-19.144-40.238,1.684-55.125,9.929c-5.312,2.942-8.442,5.967-10.302,8.648C5.569,243.289,22.514,240.623,22.514,240.623z"/> <path fill="#8D6042" d="M139.056,607.126c0,0-11.454,0-29.319-2.287c-17.866-2.286-21.586-15.546-21.586-15.546 c-14.144,6.86-13.688,12.342-13.688,13.71c0,0.064,0.055,0.312,0.11,0.559c6.448,5.712,24.491,8.45,43.844,8.45 C144.014,612.012,139.056,607.126,139.056,607.126z"/> <path opacity="0.2" d="M82.046,381.403c1.946,2.614,3.471,6.509,4.212,12.363c0.359,2.858,0.322,5.231,0.037,7.245 c1.638-0.379,2.563-0.602,2.563-0.602s10.455-1.318,8.394-17.638c-0.74-5.854-2.266-9.749-4.211-12.363 c-6.711-1.745-20.158-1.989-44.525,8.254l1.216,6.466C66.475,379.656,76.568,379.978,82.046,381.403z M82.041,381.395 c-0.867-1.165-1.817-2.072-2.826-2.778C80.224,379.32,81.174,380.23,82.041,381.395z M77.623,377.68 c-1.533-0.741-3.144-1.13-4.743-1.315C74.479,376.552,76.09,376.934,77.623,377.68z M88.617,366.686 c-1.533-0.747-3.144-1.128-4.743-1.315C85.474,365.555,87.084,365.945,88.617,366.686z M93.035,370.401 c-0.867-1.165-1.817-2.075-2.826-2.778C91.218,368.329,92.168,369.236,93.035,370.401z M102.4,451.995 c-0.016,0.002-0.035,0.008-0.051,0.011c-0.043,0.032-0.089,0.072-0.132,0.104C102.279,452.064,102.339,452.04,102.4,451.995z M96.05,447.879c0.284,1.962,0.321,3.675,0.218,5.216c2.418-0.381,4.444-0.76,6.082-1.09c2.918-2.161,5.942-6.479,4.694-15.12 c-2.233-15.461-7.526-16.271-15.874-16.271c-4.617,0-11.548,1.444-25.69,4.042c-2.872,0.526-5.548,0.926-8.074,1.259l1.673,8.888 c11.096-2.062,17.012-3.194,21.098-3.194C88.523,431.608,93.816,432.418,96.05,447.879z M96.05,485.007 c5.153,0,9.62,4.445,10.822,18.875c0.009,0.083-0.005,0.145,0,0.226c2.952-0.322,5.733-0.649,8.026-0.907 c1.965-2.11,3.39-5.264,2.969-10.312c-1.203-14.431-5.67-18.875-10.823-18.875c0,0,0,0-17.896,0c-7.336,0-15.432,0.585-22.453,1.27 L68.58,485.3c3.234-0.172,6.474-0.292,9.574-0.292C96.05,485.007,96.05,485.007,96.05,485.007z M117.352,555.59 c0.035,0.244,0,0.416,0.023,0.649c2.972-0.029,5.704-0.099,7.887-0.185c-2.37,2.2-5.253,2.711-5.94,2.805 c0.821-0.075,10.839-1.243,9.024-14.264c-1.89-13.571-5.481-18.046-20.435-18.046c-13.998,0.4-24.08,0.483-31.491,0.402 l2.064,10.976c5.248-0.059,11.332-0.18,18.432-0.384C111.87,537.544,115.461,542.019,117.352,555.59z M115.032,503.184 c-0.04,0.006-0.091,0.011-0.134,0.017c-0.159,0.169-0.293,0.387-0.459,0.542C114.638,503.555,114.844,503.391,115.032,503.184z M122.344,577.354l-0.51-0.011h0.08c-0.324-0.011-0.576-0.017-0.88-0.021c0.051,0,0.107,0,0.155,0.005l-33.195-0.843 c0,0-0.872,0.086-2.238,0.092l2.104,11.177l22.335,0.569c-0.049-0.006-0.104-0.006-0.156-0.006 c0.304,0.006,0.557,0.011,0.881,0.021h-0.08l0.51,0.011c12.564,0.317,16.199,10.061,17.025,18.317 c6.729,0.445,10.681,0.461,10.681,0.461S144.247,577.907,122.344,577.354z M82.148,315.5c-2.803-2.445-5.434-2.475-5.441-2.475 C76.715,313.026,79.346,313.058,82.148,315.5z M69.001,260.612c1.661,0.556,3.774,1.994,5.591,4.628 C72.772,262.601,70.671,261.149,69.001,260.612z M58.007,271.606c1.669,0.537,3.771,1.989,5.591,4.628 c2.177,3.154,3.936,8.007,3.936,15.318c0,2.433-0.473,4.553-1.211,6.445c5.191-2.51,12.205-7.698,12.205-17.439 c0-7.312-1.758-12.165-3.936-15.318c-2.775,0.585-30.978,7.221-44.398,16.06l0.934,4.96c13.781-5.688,30.375-9.582,32.471-10.025 C61.781,273.601,59.668,272.162,58.007,271.606z M71.159,326.5c2.491,2.18,5.116,6.26,6.165,14.012 c0.468,3.457,0.35,6.265-0.096,8.595c1.653-0.408,2.684-0.655,2.684-0.655s10.641-2.442,8.407-18.934 c-1.05-7.752-3.675-11.832-6.166-14.012c0.003,0.059,0.003,0.097,0.003,0.097s-30.994,4.901-42.435,16.341l0.663,3.527 c13.516-6.139,30.777-8.874,30.777-8.874S71.162,326.56,71.159,326.5z M65.713,324.02c0.008,0,2.639,0.03,5.441,2.476 C68.352,324.052,65.721,324.02,65.713,324.02z M57.912,234.175c0.64,3.873-0.016,7.202-1.35,10.063 c5.892-3.361,14.151-10.111,12.345-21.058c-2.749-16.663-6.7-20.614-48.616,5.497l0.735,3.916 C51.927,214.589,55.449,219.235,57.912,234.175z"/> <path opacity="0.2" d="M150.934,30.156c-1.601,0.637-2.556,1.056-2.556,1.056l-27.14,18.545c0,0,19.03-3.85,39.747-4.783 L150.934,30.156z"/> <path fill="#9B7E65" d="M460.959,526.185l6.066,33.359c2.169-0.689,4.284-1.366,6.367-2.037l-6.029-33.209 C465.254,524.923,463.122,525.554,460.959,526.185z M457.378,469.262c-2.104,0.547-4.284,1.101-6.469,1.656l6.023,33.104 c2.158-0.602,4.284-1.208,6.421-1.812L457.378,469.262z M447.055,412.381c0.043-0.008,0.081-0.019,0.118-0.029 c-2.19,0.504-4.392,1.006-6.635,1.514l6.114,33.636c2.163-0.545,4.321-1.087,6.479-1.63L447.055,412.381z M469.838,465.947 c-0.145,0.04-0.289,0.081-0.439,0.118c0.145-0.038,0.3-0.078,0.439-0.115V465.947z"/> <path fill="#B29476" d="M413.814,219.075c-1.638-11.104-3.377-22.741-5.09-33.969c-2.491,0.239-5.003,0.488-7.543,0.749 c1.853,11.188,3.742,22.808,5.498,33.984c2.855-0.314,5.626-0.604,8.38-0.889C414.63,218.994,414.243,219.029,413.814,219.075z"/> <path fill="#B29476" d="M422.301,276.817c-0.08-0.127-0.139-0.21-0.139-0.21s-2.051-14.43-4.961-34.382 c-2.298,0.282-4.644,0.583-6.984,0.878c2.362,16.135,3.994,29.102,4.134,34.787c3.521-0.478,6.92-0.935,10.28-1.383 C423.837,276.613,423.106,276.709,422.301,276.817z"/> <path fill="#B29476" d="M405.117,161.727c-2.421-15.313-4.515-27.792-5.824-34.015c-2.615,0.293-5.229,0.586-7.833,0.896 c1.095,6.273,3.231,18.618,5.798,33.765c2.856-0.247,5.647-0.473,8.396-0.685C405.472,161.703,405.3,161.713,405.117,161.727z"/> <path fill="#5F3B28" d="M509.93,316.346l0.478,2.652c-1.434,1.431-25.285,4.544-25.285,4.544l-0.011,0.029 c3.231,1.469,5.438,1.938,5.454,1.941c24.367-4.781,37.53-7.677,37.53-7.677C528.096,314.486,509.93,316.346,509.93,316.346z M136.194,273.614c-4.118-1.862-7.113-5.846-7.618-13.378c-1.17-17.415,16.798-20.335,16.798-20.335s81.084-25.769,178.315-43.291 c63.798-11.496,126.265-15.302,161.68-16.559l0.955,5.27c10.109-2.301,14.973-6.633,14.973-6.633l-16.127,0.215 c-30.97,0.722-102.234,3.806-175.244,16.964c-97.232,17.522-178.316,43.291-178.316,43.291s-17.968,2.92-16.797,20.335 C115.805,274.261,126.349,275.394,136.194,273.614z M147.672,330.747c-3.779-2.05-6.45-6.342-7.795-14.167 c-3.436-19.989,17.179-21.363,17.179-21.363s83.317-23.535,180.549-41.057c62.295-11.229,122.409-17.026,157.562-19.737 l0.531,2.918c10.871-2.405,17.281-5.741,17.281-5.741l-18.307,1.11c-31.582,2.164-99.787,7.902-170.832,20.706 c-97.231,17.522-180.549,41.058-180.549,41.058s-20.614,1.374-17.179,21.363C128.746,331.153,136.414,333.029,147.672,330.747z M476.093,385.518c39.945-9.014,61.279-14.771,61.279-14.771c-3.436-3.436-18.048-2.228-18.048-2.228l0.708,3.945l-43.993,10.949 C476.044,384.715,476.093,385.518,476.093,385.518z M461.206,294.881l12.836-2.465c11.622-1.643,22.01-3.054,30.809-4.225 c9.287-1.245,17.404-4.713,17.404-4.713s-24.619,2.915-61.978,8.194C460.551,292.8,460.884,293.826,461.206,294.881z M124.273,218.771c-2.928-2.244-5.602-6.67-5.602-15.407c0-17.515,8.756-20.102,31.246-25.873 c22.491-5.771,133.23-37.227,253.825-50.282c0,0,34.798-3.139,60.775-2.647c-24.969-2.568-74.54,1.903-74.54,1.903 c-120.596,13.056-231.334,44.512-253.824,50.283c-22.491,5.771-31.247,8.358-31.247,25.873c0,17.514,10.747,17.713,12.736,17.713 C118.629,220.333,121.565,219.555,124.273,218.771z M563.173,523.514c-2.362-2.598-11.026-2.286-16.261-1.814l0.15,0.832 c18.354,2.749-16.9,18.032-113.708,47.468C435.25,569.559,567.403,538.68,563.173,523.514z M180.938,555.751 c0.936,0.261,1.91,0.465,2.971,0.526c1.994,0.115,3.825,0.185,5.575,0.236c0.37,0.011,0.714,0.016,1.073,0.026 c1.6,0.038,3.096,0.057,4.451,0.054h0.021c5.916-0.011,9.418-0.316,9.418-0.316s60.47-2.062,198.587-35.045 c97.538-23.293,152.892-46.383,152.892-46.383c-0.43-3.701-18.156-3.902-18.156-3.902l0.349,1.916c3.919,0,8.713,0.806,8.713,0.806 c-76.241,33.561-234.512,65.878-299.979,74.993c-53.708,7.479-62.123-2.901-63.417-6.874c-0.74-3.787-0.786-7.701-0.198-11.003 c1.769-9.942,15.048-10.87,15.048-10.87l125.061-22.201c-77.801,13.84-138.825,21.457-138.825,21.457s-13.278,0.929-15.048,10.871 c-1.584,8.9,1.219,22.275,10.807,25.508C180.496,555.623,180.714,555.687,180.938,555.751z M270.857,566.25 c11.482-1.659,23.964-3.584,37.355-5.83L270.857,566.25z M223.371,604.518c-12.739,0.622-30.584,4.547-30.584-16.406 c0-9.717,7.044-11.338,7.044-11.338l9.104-0.858l61.922-9.666c-46.351,6.702-75.687,8.925-75.687,8.925l-9.104,0.858 c0,0-8.418,1.719-7.043,11.339c1.374,9.62,1.718,20.958,20.442,20.958c1.167,0,18.104,0.273,27.009-0.72 c0.008,0,0.01-0.005,0.018-0.005c38.956-1.922,111.467-8.906,195.438-34.148c3.871-1.165,7.623-2.298,11.312-3.42l0.026-0.016 c-107.539,31.608-209.892,34.491-209.892,34.491L223.371,604.518z M147.945,388.524c6.582,0.712,13.898-1.285,13.898-1.285 s112.953-24.438,210.612-40.542c9.438-1.558,18.488-3.079,27.158-4.563c22.591-5.634,24.84-33.432,24.979-42.386l-0.006-0.003 h0.006c0.026-1.744-0.021-2.848-0.021-2.848c-27.213,4.106-58,9.064-89.566,14.755c-97.231,17.522-181.407,40.198-181.407,40.198 c-13.561,1.683-16.672,5.127-17.624,13.023c-0.729,6.023,1.363,20.835,8.578,23.015c0.74,0.223,1.951,0.287,3.323,0.29 L147.945,388.524z M167.363,352.593c0,0,84.176-22.676,181.407-40.198c23.477-4.232,46.415-8.028,67.872-11.399 c0.017,0.062,1.025,5.132-1.148,11.921c0,0.005,0,0.01-0.005,0.016c-1.332,3.017-2.035,5.449-3.179,7.309 c-7.902,12.885-4.638,17.522-46.727,24.566c-42.088,7.043-130.606,24.592-201.531,40.212h-0.016 c-6.888-0.932-14.299-2.285-14.299-19.401C149.738,357.664,153.803,354.277,167.363,352.593z M169.591,501.95 c0.271,0.072,0.585,0.107,0.867,0.172c0.386,0.086,0.775,0.169,1.187,0.233c0.614,0.1,1.274,0.158,1.945,0.209 c0.312,0.021,0.612,0.054,0.935,0.062c0.901,0.034,1.865,0.013,2.866-0.046c0.143-0.008,0.274-0.008,0.419-0.019 c1.452-0.1,2.974-0.264,4.649-0.569c0,0,114.754-20.958,212.845-38.824c97.377-17.734,151.345-41.572,151.345-41.572 c-2.705-2.706-18.23-2.58-18.23-2.58l0.671,3.726c11.183,0,8.283,0,0.531,2.928c-7.752,2.929-114.561,30.283-153.272,38.757 c-38.711,8.475-155.293,28.404-180.945,31.612c-17.134,2.142-21.917-3.799-23.219-7.988c-0.521-3.27-0.657-6.735-0.657-10.093 c0-11.574,16.451-12.672,16.451-12.672l167.644-34.07c-97.232,17.522-181.408,33.327-181.408,33.327s-16.451,1.098-16.451,12.672 c0,10.296,1.047,21.739,11.829,24.684V501.95z M159.343,445.144c1.87,0.347,3.999,0.465,6.418,0.317h0.032 c1.055-0.067,2.198-0.215,3.365-0.387c0.229-0.032,0.428-0.038,0.66-0.075c-0.013-0.005-0.023-0.014-0.037-0.019 c0.199-0.032,0.397-0.064,0.591-0.092c-0.009,0.008-0.019,0.017-0.026,0.024c0.608-0.104,1.167-0.164,1.806-0.298 c0,0,0.347-0.062,0.864-0.156c0.438-0.081,1.025-0.185,1.807-0.328c2.045-0.37,5.236-0.95,9.43-1.712 c1.436-0.26,2.982-0.542,4.646-0.845c1.076-0.196,2.16-0.395,3.328-0.607c0.067-0.013,0.135-0.024,0.201-0.038 c8.386-1.53,19.071-3.487,31.395-5.758c0.172-0.032,0.344-0.064,0.518-0.094c42.818-7.892,105.352-19.557,161.859-30.661 c20.367-4.003,38.813-7.804,55.289-11.314c-7.516-21.199-22.198-28.165-31.164-30.468c-0.134-0.038-0.279-0.078-0.408-0.11 c-0.472-0.118-0.912-0.215-1.347-0.306c-0.204-0.043-0.403-0.086-0.597-0.124c-0.386-0.075-0.74-0.142-1.089-0.198 c-0.231-0.037-0.44-0.069-0.655-0.102c-0.273-0.041-0.548-0.084-0.8-0.113c-0.37-0.048-0.698-0.083-0.999-0.11 c-0.048-0.005-0.102-0.011-0.145-0.016c-0.998-0.089-1.567-0.089-1.567-0.089c-19.579,3.721-40.258,7.569-61.184,11.341 c-97.231,17.522-177.628,34.357-177.628,34.357s-16.489,1.01-17.445,13.266c-0.66,8.49-0.043,19.272,8.711,23.376 c-0.009,0.03-0.024,0.067-0.033,0.097c0.285,0.134,0.645,0.207,0.948,0.325c0.282,0.11,0.582,0.207,0.883,0.304 c0.671,0.22,1.358,0.427,2.115,0.574C159.166,445.123,159.262,445.128,159.343,445.144z M160.226,421.174 c0.956-12.256,17.444-13.265,17.444-13.265s80.396-16.836,177.629-34.358c16.443-2.963,32.666-5.969,48.385-8.927v0.002 c0,0,22.301,6.563,29.344,25.876c0,0-36.35,9.539-103.368,22.263c-66.128,12.554-144.159,27.352-151.458,27.744 c-13.192,0.523-16.545-4.751-17.355-6.968C159.934,429.509,159.92,425.104,160.226,421.174z"/> <path fill="#B29476" d="M481.182,462.804c-7.307,2.072-15.23,4.23-23.804,6.458l5.976,32.949 c7.763-2.199,15.375-4.435,22.762-6.703L481.182,462.804z M489.433,517.507c-6.957,2.212-14.328,4.485-22.069,6.788l6.029,33.212 c0.102-0.032,0.209-0.064,0.306-0.097c3.264-1.05,6.383-2.067,9.432-3.065c0.876-0.287,1.729-0.569,2.583-0.852 c2.641-0.872,5.207-1.726,7.682-2.558c0.338-0.115,0.698-0.233,1.031-0.347L489.433,517.507z M472.667,406.358 c-8.036,1.938-16.604,3.959-25.612,6.023l6.077,33.49c8.396-2.118,16.685-4.228,24.555-6.249L472.667,406.358z"/> <path fill="#DFB98D" d="M433.436,182.972c-7.881,0.602-16.148,1.31-24.711,2.134c1.713,11.228,3.452,22.864,5.09,33.969 c8.895-0.929,17.237-1.708,25-2.359C437.016,205.238,435.175,193.757,433.436,182.972z"/> <path fill="#DFB98D" d="M442.32,239.33c-8.026,0.866-16.406,1.825-25.113,2.896c2.904,19.952,4.955,34.382,4.955,34.382 s0.059,0.083,0.139,0.21c8.928-1.197,17.271-2.285,25.044-3.275C445.954,263.519,444.215,251.741,442.32,239.33z"/> <path fill="#DFB98D" d="M424.024,125.724c-11.751,0.716-20.281,1.484-20.281,1.484c-1.487,0.16-2.969,0.338-4.45,0.504 c1.31,6.223,3.403,18.701,5.824,34.015c8.762-0.68,16.964-1.182,24.608-1.549C426.397,139.867,424.024,125.724,424.024,125.724z"/> <path opacity="0.2" d="M115.902,213.615c0-17.515,8.756-20.102,31.246-25.873c22.49-5.771,133.229-37.227,253.824-50.282 c0,0,52.229-4.706,76.435-1.665l-0.504-2.802c0.521-1.562,0.875-2.969,1.153-4.309c-6.629-9.566-88.078-2.22-88.078-2.22 c-120.596,13.056-231.334,44.512-253.824,50.283c-22.491,5.771-31.247,8.358-31.247,25.873c0,15.401,8.308,17.412,11.665,17.672 C116.159,218.398,115.902,216.218,115.902,213.615z M137.107,326.831c-3.437-19.989,17.178-21.363,17.178-21.363 s83.317-23.535,180.549-41.058c65.173-11.743,127.816-17.532,162.12-20.08l-2.094-11.633 c-31.475,2.149-99.793,7.883-171.021,20.719c-97.231,17.522-180.549,41.058-180.549,41.058s-20.614,1.374-17.179,21.363 c1.807,10.512,5.985,14.688,12.065,15.544C137.768,330.003,137.396,328.522,137.107,326.831z M125.807,270.487 c-1.17-17.415,16.797-20.335,16.797-20.335s81.084-25.769,178.316-43.291c66.729-12.024,131.89-15.627,166.274-16.709 l-2.024-11.246c-30.975,0.719-102.234,3.803-175.244,16.961c-97.232,17.522-178.316,43.291-178.316,43.291 s-17.968,2.92-16.797,20.335c0.654,9.735,5.462,13.547,11.482,14.508C126.069,272.917,125.893,271.77,125.807,270.487z M476.093,385.518c4.246-0.959,8.24-1.871,12.062-2.752c2.238-11.649,8.911-26.954,28.243-30.476l-2.304-12.793 c-2.437,0.499-5.035,1.028-7.939,1.618C473.258,346.46,476.093,385.509,476.093,385.518z M478.825,319.989 c-3.114-4.504-5.836-10.173-7.554-17.321c13.689-1.935,25.65-3.548,35.324-4.82l-2.186-12.138 c-10.779,1.385-25.929,3.39-44.133,5.964C463.906,306.745,471.938,315.254,478.825,319.989z M542.854,499.156 c-28.265,10.527-91.51,32.514-165.588,48.189c-103.473,21.895-182.095,27.829-182.095,27.829l-9.104,0.858 c0,0-8.418,1.719-7.043,11.339c1.146,8.015,1.613,17.2,12.557,20.045c-0.809-2.92-1.136-6.066-1.562-9.051 c-1.375-9.62,7.043-11.338,7.043-11.338l9.105-0.859c0,0,78.625-5.938,182.095-27.829c67.48-14.28,125.883-33.77,157.132-45.089 L542.854,499.156z M146.969,375.869c0.953-7.897,4.063-11.341,17.624-13.024c0,0,84.177-22.676,181.408-40.198 c27.083-4.883,53.576-9.22,77.75-12.951c1.105-7.244,0.821-12.795,0.821-12.801c-27.213,4.109-58,9.067-89.566,14.758 c-97.231,17.522-181.407,40.198-181.407,40.198c-13.561,1.683-16.672,5.127-17.624,13.023c-0.729,6.023,1.363,20.835,8.578,23.015 c1.16,0.349,2.402,0.534,3.664,0.654C146.947,383.888,146.611,378.824,146.969,375.869z M180.467,541.037 c1.77-9.941,15.048-10.871,15.048-10.871s84.005-10.484,180.549-29.204c80.617-15.629,132.233-31.232,159.769-40.791l-2.523-14.006 c-24.641,9.029-78.545,26.412-168.239,43.803c-96.545,18.72-180.549,29.204-180.549,29.204s-13.278,0.929-15.048,10.871 c-1.658,9.33,1.479,23.615,12.229,25.935C179.989,551.097,179.673,545.503,180.467,541.037z M157.455,431.425 c0.956-12.256,17.445-13.265,17.445-13.265s80.396-16.835,177.628-34.358c20.927-3.771,41.605-7.62,61.184-11.34 c0,0,10.323-0.017,20.91,7.247c-12.885-18.269-31.904-18.242-31.904-18.242c-19.579,3.721-40.258,7.569-61.184,11.341 c-97.231,17.522-177.628,34.357-177.628,34.357s-16.489,1.01-17.445,13.266c-0.735,9.424,0.054,21.723,11.852,24.531 C157.12,440.627,157.12,435.728,157.455,431.425z M168.756,488.209c0-11.574,16.451-12.672,16.451-12.672 s84.176-15.805,181.408-33.327c65.773-11.854,126.859-26.979,159.58-35.544l-2.389-13.263 c-29.682,7.913-96.18,24.837-168.186,37.812c-97.232,17.522-181.408,33.327-181.408,33.327s-16.451,1.098-16.451,12.672 c0,10.503,1.065,22.222,12.46,24.879C168.984,497.827,168.756,492.899,168.756,488.209z"/> <path fill="#C6A98F" d="M261.564,738.577c5.908,0.161,12.018,0.188,18.491-0.091C272.591,738.164,266.527,738.228,261.564,738.577z M408.875,759.674l-4.579-38.48c0,0-49.416,20.513-124.24,17.292c0,0,23.766,80.879,27.307,90.488 c2.949,8.005,17.079,58.752-7.474,70.831l0.014,0.048c0,0,38.158-13.023,38.158-38.158s-6.431-61.537-6.431-61.537l55.616-23.256 c0,0,14.156,48.535,3.537,65.725c0,0,3.538,6.57,0,16.685l2.057-0.918c15.573-8.015,18.327-19.24,18.327-19.24 s16.718-12.368,16.718-42.372S408.875,759.674,408.875,759.674z"/> <path fill="none" d="M307.866,857.797c-2.528-49.04-40.444-76.349-61.175-76.349s-31.757,25.156-31.757,25.156l0,0l0.196,0.445 c-3.148,7.269-8.482,27.867,5.816,59.61s39.495,39.243,39.495,39.243C270.148,909.017,310.395,906.837,307.866,857.797z"/> <path fill="#9B7E65" d="M307.362,828.974c-3.541-9.609-27.307-90.488-27.307-90.488c-67.104,2.904-104.179-20.357-104.179-20.357 l39.058,88.477c0,0,11.026-25.156,31.757-25.156s58.646,27.309,61.175,76.349c1.337,25.935-9.301,38.689-21.046,44.562 C328.715,903.112,310.733,838.123,307.362,828.974z"/> <path fill="#C6A98F" d="M307.866,857.797c-2.528-49.04-40.444-76.349-61.175-76.349s-31.757,25.156-31.757,25.156l0,0l0.196,0.445 c-3.148,7.269-8.482,27.867,5.816,59.61s39.495,39.243,39.495,39.243C270.148,909.017,310.395,906.837,307.866,857.797z"/> <path fill="#EACCAD" d="M234.87,799.234c-9.185,0-16.199,5.486-20.899,10.93c-2.969,9.148-5.646,28.469,6.977,56.497 c14.299,31.743,39.495,39.243,39.495,39.243c0.185,0.059,0.456,0.102,0.663,0.155c13.029-2.588,29.054-12.557,27.537-41.31 C286.417,822.672,253.09,799.234,234.87,799.234z"/> <path fill="#C6A98F" d="M258.405,843.013c6.198,12.819,5.634,25.913-1.262,29.241c-6.891,3.334-17.501-4.349-23.701-17.168 c-6.192-12.814-5.626-25.907,1.265-29.241C241.602,822.516,252.213,830.199,258.405,843.013z"/> <path fill="#5E4130" d="M257.144,872.254c-6.891,3.334-17.501-4.349-23.701-17.168c-5.688-11.768-5.604-23.675-0.229-28.142 c-0.596,0.124-1.205,0.205-1.755,0.468c-6.891,3.334-7.314,16.723-0.945,29.901c6.375,13.18,17.128,21.157,24.018,17.823 c1.49-0.72,2.617-1.981,3.498-3.538C257.727,871.809,257.477,872.093,257.144,872.254z"/> <path fill="#EACCAD" d="M411.167,839.153c0,0,16.718-12.368,16.718-42.372s-19.01-37.106-19.01-37.106 S418.495,814.646,411.167,839.153z"/> <path opacity="0.2" d="M261.564,738.577c5.908,0.161,12.018,0.188,18.491-0.091C272.591,738.164,266.527,738.228,261.564,738.577z M280.056,738.486c0,0,23.766,80.879,27.307,90.488l83.373-103.18C371.179,731.64,331.673,740.708,280.056,738.486z"/> <path fill="#5E4130" d="M332.929,808.145c1.879,12.111,5.132,35.657,5.132,53.55c0,25.135-38.158,38.158-38.158,38.158 l-0.014-0.048c0.097-0.049,0.17-0.124,0.264-0.172c-3.564,1.819-7.945,2.823-13.332,2.727c0,0,0,0,0.002,0 c-4.721,2.357-9.59,3.57-13.966,4.097c-0.008,0.011-0.037,0.075-0.037,0.075s4.676,12.825,31.553,0.697 c26.876-12.127,38.671-22.284,38.671-41.293c0-19.01-0.961-48.638-10.109-57.791C332.934,808.145,332.934,808.145,332.929,808.145z "/> <path fill="#5E4130" d="M387.246,776.902l-11.8,4.934c0.005,0.005,15.337,18.451,15.337,60.791 C401.402,825.437,387.246,776.902,387.246,776.902z"/> <path opacity="0.2" d="M347.263,810.759l13.056,3.662v36.193c0,0-2.175,9.738-5.954,5.959S338.785,837.102,347.263,810.759z"/> <polygon fill="#B29476" points="347.263,810.759 373.374,801.365 383.45,805.945 360.318,814.421 "/> <path fill="#846F5D" d="M240.705,737.132c-28.656-13.447-46.635-43.607-57.355-70.588c-10.766-27.111-14.188-50.774-14.221-50.817 c-0.059-0.258-16.778-81.046-35.693-175.154c-18.914-94.091-39.974-201.33-48.561-253.8c-4.235-25.887-5.824-47.212-5.824-64.646 c0-26.557,3.69-44.065,7.352-54.886c3.487-10.348,6.845-14.385,7.103-14.784c-1.836,1.138-3.647,2.284-5.411,3.446 c-4.464,8.555-11.875,28.42-11.864,66.224c0,17.604,1.597,39.068,5.856,65.089C99.273,292.312,166.34,616.189,166.34,616.2 c0.092,0.016,12.641,88.138,66.584,119.924C235.434,736.5,238.04,736.827,240.705,737.132z"/> <path opacity="0.4" fill="#FFFFFF" d="M530.994,537.257c-15.015,6.152-38.346,14.231-70.373,24.313 c4.128,55.482,2.12,106.256-11.435,146.632c16.057-7.354,24.737-14.726,24.737-14.726c36.645-10.769,49.937-31.378,49.937-31.378 c12.524-5.428,21.505-13.571,27.91-22.966C545.72,609.591,538.629,574.852,530.994,537.257z M499.332,380.158 c-6.877,1.621-14.591,3.409-23.239,5.36c0-0.009-1.89-27.073,16.497-39.203c-1.429-7.183-2.846-14.336-4.258-21.454 c-6.002-2.048-22.396-9.682-28.055-33.188c7.649-1.082,14.73-2.059,21.21-2.937c-1.101-6.348-2.152-12.683-3.151-18.999 c-16.486,1.941-37.67,4.58-63.132,8.037c1.149,6.605,2.335,13.278,3.549,20.005c1.943-0.295,3.908-0.599,5.819-0.886 c0,0.008,0.499,9.556-2.324,19.973c3.741,20.204,7.66,40.813,11.531,61.597c2.947,3.911,5.609,8.719,7.709,14.64 c-1.558,0.33-3.216,0.68-4.805,1.015c1.213,6.596,2.41,13.198,3.597,19.807c24.442-5.526,46.007-10.825,62.782-15.111 C501.817,392.596,500.572,386.376,499.332,380.158z M427.885,796.824c0-0.011,0-0.027,0-0.043c0-17.845-6.716-27.551-12.165-32.517 C374.55,804.576,392.238,807.56,427.885,796.824z M456.015,123.971c-9.1-45.113-22.042-83.841-45.884-111.188 c-9.438-1.686-16.143-1.188-16.143-1.188C372.461-2.175,300.923-0.272,273.131,0.635c36.663,20.735,84.787,59.184,111.962,126.382 c1.627-0.182,3.254-0.375,4.886-0.553C389.979,126.464,429.774,122.874,456.015,123.971z M513.918,452.853 c-1.203-5.982-2.416-11.995-3.629-18.024c-16.089,5.205-37.332,11.397-63.396,17.568c1.031,6.275,2.024,12.538,2.985,18.784 C477.032,464.31,498.205,457.997,513.918,452.853z M401.14,183.777c24.974-2.273,47.14-3.537,64.227-4.229 c-0.993-6.837-2.013-13.58-3.07-20.231c-16.766,0.052-38.97,0.784-65.773,3.122C398.262,169.326,399.846,176.393,401.14,183.777z M457.405,527.218c26.857-7.752,49.898-15.385,67.201-21.468c-1.214-5.98-2.432-12.012-3.661-18.089 c-16.514,5.602-38.652,12.618-65.875,20.166C455.907,514.332,456.686,520.795,457.405,527.218z M409.127,240.792 c24.599-2.939,46.593-5.022,63.933-6.45c-0.945-6.654-1.863-13.269-2.771-19.826c-16.68,0.91-38.266,2.529-64.2,5.388 C407.018,226.743,408.049,233.727,409.127,240.792z"/> <path fill="#B29476" d="M382.001,700.07c14.07-41.713,15.074-80.166-15.552-77.294c-30.627,2.872-25.366,30.626-31.588,62.214 s-83.277,42.115-83.277,42.115C243.449,741.937,368.843,739.076,382.001,700.07z M435.362,682.118 c15.316-48.337,10.77-73.938-11.482-71.308c-22.252,2.63-11.488,31.109-16.755,71.308s-63.652,49.775-63.652,49.775 S420.047,730.455,435.362,682.118z M473.649,597.41c-16.99,7.897-11.482,20.577-16.271,64.131 c-4.788,43.554-42.593,55.037-42.593,55.037c12.444,0,48.337-11.967,64.608-43.549S490.641,589.513,473.649,597.41z M500.932,618.47C503.804,677.339,477,691.689,477,691.689c37.326-13.883,43.075-40.198,49.775-75.135 C533.475,581.617,498.06,559.601,500.932,618.47z M543.729,569.277c-11.939,4.212-8.251,35.467-6.845,57.943 c1.406,22.478-11.548,33.843-11.548,33.843C568.938,634.151,555.668,565.063,543.729,569.277z"/> <path fill="#794B37" d="M416.079,613.693c-11.547,8.498-4.466,34.175-8.954,68.425c-1.213,9.255-5.256,16.867-10.736,23.132 c12.239-5.046,33.214-16.465,36.37-36.516C437.011,641.726,442.153,611.931,416.079,613.693z M367.974,625.9 c-16.497-1.477-24.576,12.75-25.612,14.721c-4.091,11.498-4.15,27.356-7.5,44.369c-0.397,2.029-1.101,3.967-2.045,5.824 l0.005,0.006c0,0,38.319,5.948,42.818-10.71S385.689,627.484,367.974,625.9z M540.674,571.347 c-8.139,8.294-5.057,35.613-3.79,55.873c0.118,1.853,0.102,3.603,0.038,5.299c3.602-5.583,9.271-16.904,9.271-32.795 C546.192,582.454,546.326,574.375,540.674,571.347z M508.088,583.855c-4.697,4.01-8.128,14.65-7.156,34.615 c1.122,22.949-2.287,39.065-6.839,50.27c6.394-2.336,17.544-8.348,19.047-22.209C515.077,628.632,525.164,586.673,508.088,583.855z M472.228,598.162c-15.183,7.961-10.206,21.151-14.85,63.379c-1.486,13.539-6.173,23.97-11.912,31.932 c8.477-3.651,26.917-12.997,28.544-25.795C475.84,653.251,487.366,605.548,472.228,598.162z"/> <path opacity="0.2" d="M416.079,613.693c-11.547,8.498-4.466,34.175-8.954,68.425c-1.213,9.255-5.256,16.867-10.736,23.132 c4.401-1.814,9.931-4.466,15.358-8.036c0.316-1.353,0.688-2.673,0.875-4.102c4.488-34.25-2.593-59.927,8.954-68.425 c6.292-0.424,10.737,1.02,13.84,3.79C433.602,619.001,428.281,612.871,416.079,613.693z M367.974,625.9 c-16.497-1.477-24.576,12.75-25.612,14.721c-4.091,11.498-4.15,27.356-7.5,44.369c-0.397,2.029-1.101,3.967-2.045,5.824 l0.005,0.006c0,0,3.425,0.521,8.305,0.821c2.593-15.349,2.99-29.516,6.732-40.026c1.036-1.971,9.115-16.196,25.612-14.721 c2.362,0.21,4.289,1.068,5.878,2.379C377.959,631.886,374.593,626.491,367.974,625.9z M472.228,598.162 c-15.183,7.961-10.206,21.151-14.85,63.379c-1.486,13.539-6.173,23.97-11.912,31.932c3.715-1.601,9.347-4.295,14.634-7.897 c1.225-4.021,2.255-8.272,2.775-13.04c4.645-42.228-0.332-55.417,14.85-63.379c0.537,0.264,0.966,0.682,1.434,1.042 C478.148,604.421,476.028,600.019,472.228,598.162z M545.816,582.787c-0.525-6.077-1.83-9.663-5.143-11.439 c-8.139,8.294-5.057,35.613-3.79,55.873c0.118,1.853,0.102,3.603,0.038,5.299c1.342-2.083,2.974-4.966,4.493-8.584 C540.325,607.089,539.885,589.562,545.816,582.787z M508.088,583.855c-4.697,4.01-8.128,14.65-7.156,34.615 c1.122,22.949-2.287,39.065-6.839,50.27c2.92-1.068,6.823-2.964,10.355-5.965c1.733-9.083,2.63-20.019,1.98-33.311 c-0.972-19.965,2.459-30.604,7.156-34.615c1.434,0.236,2.609,0.832,3.678,1.584C516.194,589.636,513.526,584.751,508.088,583.855z"/> <path fill="#B29476" d="M121.238,49.756l27.14-18.545c0,0,36.186-16.288,72.824-9.953c36.64,6.334,49.304,13.117,58.803,35.734 s20.352,41.615-2.263,51.565s-37.093-10.401-42.066-23.067c-4.975-12.667-19.9-34.83-47.041-39.354 C161.495,41.615,121.238,49.756,121.238,49.756z"/> <path fill="#B29476" d="M178.682,18.544c0,0,48.85-5.425,71.016-0.451s43.425,16.282,56.543,56.54 c13.117,40.257,45.236,23.073,40.26,5.43C341.523,62.42,335.64-4.07,230.248,7.689L178.682,18.544z"/> <path fill="#B29476" d="M252.594,5.311l10.148,1.24c0,0,38.48-4.576,59.096,9.626c20.614,14.201,36.188,43.064,41.229,61.387 s37.568,21.986,32.527-0.918c0,0-9.341-73.217-98.281-76.582c-17.289,0.209-30.847,0.867-34.433,0.867 c-10.455,0-9.757,4.251-9.757,4.251c-0.186,0.017-0.363,0.041-0.548,0.057L252.594,5.311z"/> <path fill="#B29476" d="M343.021,2.844c0,0,52.728,1.119,70.905,30.517c18.177,29.397,26.696,53.611,10.549,55.426 C402.486,91.256,399.566,19,343.021,2.844z"/> <path fill="#B29476" d="M397.097,13.391c0,0,23.342,8.305,34.336,32.537c10.995,24.232,17.501,44.206,26.702,44.206 c9.202,0,4.939-19.971-4.487-37.025C444.221,36.053,427.836,13.391,397.097,13.391z"/> <path fill="#794B37" d="M252.865,46.137c-8.142-2.263-24.906,5.348-38.236,11.494c-0.003,0-0.006,0.003-0.008,0.006 c11.139,8.664,17.992,20.053,21.055,27.854c3.107,7.915,9.929,18.835,20.129,23.481h0.002c0,0,20.488,1.752,24.652-13.531 C284.621,80.157,261.006,48.401,252.865,46.137z M249.697,18.093c22.166,4.974,43.425,16.282,56.543,56.54 c6.761,20.754,18.566,26.219,27.74,24.249c0.021-0.017,8.756-8.691,0-28.877C325.215,49.799,316.233,18.093,249.697,18.093z M314.746,12.277c0,0,0.027,0.048,0.027,0.057c2.501,1.105,4.896,2.351,7.064,3.844c20.614,14.201,36.188,43.064,41.229,61.387 c2.561,9.309,12.213,14.806,20.433,14.986c5.54-10.466-0.376-28.391-12.874-50.887C354.918,13.388,314.746,12.277,314.746,12.277z M377.325,24.339c24.238,26.179,30.477,63.846,45.69,64.461c4.182-14.256-9.084-34.398-18.736-48.259 C395.551,28,383.596,25.018,377.325,24.339z M429.425,41.942c0.704,1.283,1.38,2.602,2.008,3.986 c7.769,17.117,13.292,32.07,19.111,39.398C461.732,77.997,441.906,54.807,429.425,41.942z"/> <path opacity="0.2" d="M429.425,41.942c0.15,0.274,0.279,0.572,0.43,0.849c11.134,12.377,23.267,28.879,16.465,35.906 c1.412,2.604,2.813,4.851,4.225,6.63C461.732,77.997,441.906,54.807,429.425,41.942z M261.784,18.477 c-3.806-0.249-7.824-0.384-12.087-0.384c11.084,2.485,21.941,6.558,31.666,15.04C275.308,26.398,268.701,21.76,261.784,18.477z M257.144,48.787c9.606,10.976,20.792,30.243,17.817,41.157c-4.163,15.283-24.651,13.53-24.651,13.53h-0.003 c-2.318-1.058-4.441-2.469-6.406-4.066c3.234,3.911,7.19,7.417,11.904,9.564h0.002c0,0,20.488,1.752,24.652-13.531 C284.033,82.318,267.15,57.103,257.144,48.787z M321.838,16.177c2.593,1.784,5.1,3.803,7.521,6.001 c-3.279-3.54-6.759-6.771-10.42-9.566c-2.608-0.284-4.192-0.335-4.192-0.335s0.027,0.048,0.027,0.057 C317.274,13.439,319.669,14.684,321.838,16.177z M214.629,57.631c-0.003,0-0.006,0.003-0.008,0.006 c1.108,0.861,2.142,1.769,3.167,2.679c-0.87-0.972-1.782-1.928-2.735-2.878C214.916,57.5,214.766,57.567,214.629,57.631z M396.624,32.341c0.726,0.875,1.466,1.71,2.158,2.703c9.652,13.86,22.918,34.003,18.735,48.259 c-1.798-0.073-3.462-0.698-5.051-1.727c3.227,4.341,6.581,7.062,10.549,7.224c4.182-14.256-9.084-34.398-18.736-48.259 C401.907,37.135,399.293,34.48,396.624,32.341z M312.824,35.895c8.165,9.41,11.939,20.043,15.659,28.613 c8.756,20.185,0.021,28.86,0,28.876c-4.547,0.978-9.738,0.118-14.645-3.516c6.297,8.211,13.84,10.366,20.142,9.014 c0.021-0.017,8.756-8.691,0-28.877C329.515,59.714,324.979,46.444,312.824,35.895z M359.594,28.417 c2.034,2.344,3.935,4.872,5.534,7.749c12.498,22.496,18.414,40.422,12.874,50.887c-4.107-0.088-8.574-1.508-12.332-4.066 c4.091,5.967,11.376,9.422,17.829,9.564c5.54-10.466-0.376-28.391-12.874-50.887C367.668,36.343,363.846,31.987,359.594,28.417z"/> <path opacity="0.4" fill="#FFFFFF" d="M12.591,148.383c0.958,3.581,2.429,6.969,4.507,10.071 c15.885,23.712,59.36,22.438,97.11-2.851c37.747-25.285,55.477-65.003,39.592-88.715c-10.983-16.4-35.171-20.829-61.529-13.646 C47.681,81.271,24.535,116.697,12.591,148.383z"/> <g> <g> <path fill="#794B37" d="M446.143,331.241l-0.032-0.258c-0.043-0.083-0.103-0.129-0.167-0.123h-0.097 c-0.037,0-0.043,0.021-0.021,0.064c-1.111,0.8-2.286,1.524-3.521,2.158c-1.052,0.545-2.195,1.055-3.431,1.543 c-1.234,0.486-2.447,0.744-3.64,0.776h-0.048c-0.07,0-0.279,0-0.639-0.011c-0.36-0.014-0.773-0.086-1.235-0.231 c-0.461-0.131-0.934-0.344-1.406-0.633c-0.473-0.288-0.854-0.688-1.127-1.195c-0.462-0.843-0.602-1.787-0.425-2.818 c0.183-1.036,0.623-2.063,1.348-3.095c0.72-1.028,1.664-2.031,2.835-3.009c1.17-0.977,2.485-1.863,3.962-2.654 c1.471-0.792,3.076-1.423,4.815-1.903c1.755-0.478,3.548-0.741,5.411-0.792c0.525-0.014,1.084-0.008,1.67,0.019 c0.585,0.027,1.25,0.075,1.996,0.14c0.741,0.067,1.605,0.161,2.577,0.279c0.978,0.126,2.12,0.276,3.425,0.456 c0.548,0.075,1.09,0.143,1.638,0.212c0.467,0.075,0.972,0.124,1.492,0.156c0.526,0.029,0.978,0.032,1.369,0.024 c0.048-0.046,0.102-0.064,0.172-0.07l0.349-0.008c0.295-0.006,0.483,0.051,0.553,0.18c0.064,0.124,0.081,0.295,0.027,0.51 c-0.295,1.13-0.972,1.877-2.019,2.244c-1.036,0.373-2.089,0.572-3.151,0.604c-0.961,0.023-1.777-0.014-2.442-0.129 c-0.408-0.07-0.757-0.124-1.053-0.161c-1.793-0.336-3.344-0.531-4.627-0.585c-1.288-0.046-2.518-0.057-3.683-0.024 c-2.781,0.075-5.116,0.438-7.001,1.087c-1.879,0.655-3.354,1.42-4.412,2.287c-1.068,0.864-1.756,1.739-2.083,2.63 c-0.322,0.892-0.35,1.59-0.075,2.094c0.14,0.255,0.333,0.457,0.585,0.602c0.241,0.143,0.483,0.252,0.735,0.33 c0.295,0.121,0.596,0.175,0.902,0.172c0.183,0.035,0.375,0.064,0.568,0.083c0.193,0.014,0.408,0.017,0.64,0.014 c1.057-0.029,2.185-0.236,3.382-0.614c1.187-0.374,2.276-0.812,3.253-1.313c1.144-0.547,2.292-1.156,3.441-1.827 c0.611-0.365,1.165-0.66,1.643-0.889c0.478-0.226,0.886-0.405,1.213-0.545l0.988-0.419h0.15c0.134-0.005,0.236,0.057,0.301,0.186 c0.048,0.083,0.08,0.233,0.091,0.445c-0.499,0.875-0.982,1.897-1.466,3.073c-0.392,0.996-0.778,2.247-1.154,3.764 c-0.37,1.511-0.649,3.285-0.826,5.307c0.537-0.06,1.079-0.092,1.632-0.11c0.542-0.014,1.197-0.097,1.959-0.25l0.15-0.002 c0.103,0,0.172,0.04,0.221,0.123c0.188,0.47,0.204,0.843,0.054,1.125c-0.15,0.284-0.376,0.491-0.698,0.633 c-0.306,0.135-0.645,0.231-1.004,0.282c-0.354,0.057-0.655,0.083-0.886,0.092l-1.589,0.042c0.005,1.678,0,3.286-0.027,4.832 c-0.011,1.549,0.06,3.068,0.21,4.565c0.161,1.501,0.451,3.018,0.886,4.547c0.424,1.538,1.073,3.108,1.948,4.717 c0.602,1.098,1.337,2.069,2.212,2.898c0.875,0.838,1.928,1.24,3.151,1.208c1.262-0.037,2.335-0.402,3.227-1.09 c0.886-0.689,1.605-1.578,2.158-2.671c0.553-1.087,0.972-2.297,1.25-3.64c0.285-1.339,0.43-2.684,0.436-4.034 c0.005-1.35-0.113-2.642-0.354-3.857s-0.591-2.246-1.047-3.089c-0.327-0.596-0.606-0.996-0.858-1.203 c-0.247-0.206-0.591-0.303-1.021-0.295c-0.821,0.024-1.552,0.341-2.147,0.964c-0.606,0.611-1.116,1.382-1.514,2.292 c-0.392,0.913-0.698,1.897-0.939,2.953c-0.23,1.065-0.402,2.042-0.521,2.944c-0.113,0.907-0.193,1.64-0.242,2.201 c-0.048,0.558-0.086,0.815-0.112,0.775c0.011,0.258-0.038,0.387-0.135,0.392c-0.069,0-0.166-0.094-0.278-0.281 c-0.124-0.193-0.21-0.328-0.253-0.414c-0.312-1.065-0.531-2.475-0.66-4.235c-0.129-1.758-0.043-3.486,0.258-5.191 c0.306-1.704,0.869-3.178,1.707-4.426c0.843-1.248,2.057-1.896,3.646-1.936c0.499-0.014,0.977,0.06,1.428,0.218 c0.284,0.077,0.559,0.244,0.832,0.496c0.236,0.207,0.516,0.488,0.811,0.849c0.295,0.354,0.596,0.829,0.923,1.422 c0.806,1.479,1.407,3.106,1.794,4.88c0.386,1.77,0.579,3.557,0.568,5.358c-0.016,1.804-0.235,3.546-0.671,5.236 c-0.43,1.686-1.041,3.191-1.825,4.523c-0.789,1.331-1.776,2.399-2.952,3.207c-1.182,0.806-2.556,1.235-4.107,1.275 c-1.159,0.032-2.217-0.201-3.173-0.69c-0.961-0.488-1.798-1.079-2.528-1.769c-0.725-0.688-1.357-1.42-1.879-2.204 c-0.521-0.778-0.923-1.422-1.202-1.93c-0.896-1.647-1.595-3.345-2.083-5.095c-0.499-1.742-0.849-3.479-1.058-5.186 c-0.204-1.71-0.306-3.374-0.279-4.984c0.017-1.613,0.103-3.105,0.258-4.482c-0.435,0.008-0.768,0.019-0.999,0.026 c-0.225,0.006-0.407,0.008-0.542,0.014c-0.134,0.005-0.226,0.019-0.284,0.043c-0.049,0.021-0.113,0.035-0.178,0.035 c-0.284-0.032-0.478-0.138-0.568-0.309c-0.021-0.041-0.027-0.138-0.011-0.29c0.021-0.147,0.075-0.322,0.172-0.516 c0.097-0.198,0.258-0.381,0.483-0.561c0.22-0.181,0.521-0.296,0.896-0.347l0.349-0.008c0.129-0.006,0.279,0,0.44,0.013 c0.155,0.02,0.338,0.027,0.542,0.021c0.161-1.253,0.37-2.372,0.644-3.365c0.264-0.996,0.516-1.863,0.758-2.599 C445.557,332.696,445.853,331.931,446.143,331.241z"/> </g> </g> </g> </svg>